<svg width="15" height="14" viewBox="0 0 15 14" fill="none" xmlns="http://www.w3.org/2000/svg">
<path fill-rule="evenodd" clip-rule="evenodd" d="M7.00586 13.8641C10.8718 13.8641 14.0059 10.7604 14.0059 6.93204C14.0059 3.10366 10.8718 0 7.00586 0C3.13995 0 0.00585938 3.10366 0.00585938 6.93204C0.00585938 10.7604 3.13995 13.8641 7.00586 13.8641ZM10.525 5.06039C10.6093 4.97079 10.6552 4.85229 10.653 4.72984C10.6508 4.6074 10.6007 4.49057 10.5133 4.40397C10.4258 4.31738 10.3078 4.26778 10.1842 4.26561C10.0605 4.26345 9.94088 4.30891 9.8504 4.39239L5.75986 8.44228L4.18613 6.62419C4.10349 6.52998 3.98657 6.47196 3.86089 6.46279C3.73521 6.45362 3.61097 6.49405 3.51527 6.57525C3.41958 6.65646 3.3602 6.77184 3.35009 6.89624C3.33998 7.02064 3.37996 7.14394 3.46131 7.23925L5.14672 9.18653C5.21805 9.26894 5.3058 9.33587 5.40448 9.38312C5.50315 9.43037 5.61063 9.45691 5.72015 9.46108C5.82967 9.46525 5.93889 9.44696 6.04094 9.40736C6.14299 9.36776 6.23567 9.3077 6.31318 9.23096L10.525 5.06039Z" fill="#3B71FE"/>
</svg>
