<svg width="27" height="12" viewBox="0 0 27 12" fill="none" xmlns="http://www.w3.org/2000/svg">
<path d="M8.42188 1.04688V7.60254C8.42188 8.69173 8.08008 9.55306 7.39648 10.1865C6.71745 10.82 5.78776 11.1367 4.60742 11.1367C3.44531 11.1367 2.52246 10.8291 1.83887 10.2139C1.15527 9.59863 0.806641 8.75326 0.792969 7.67773V1.04688H2.84375V7.61621C2.84375 8.2679 2.9987 8.74414 3.30859 9.04492C3.62305 9.34115 4.05599 9.48926 4.60742 9.48926C5.76042 9.48926 6.34603 8.88314 6.36426 7.6709V1.04688H8.42188ZM15.2646 8.38867C15.2646 8.0013 15.1279 7.70508 14.8545 7.5C14.5811 7.29036 14.0889 7.07161 13.3779 6.84375C12.667 6.61133 12.1042 6.38346 11.6895 6.16016C10.5592 5.54948 9.99414 4.72689 9.99414 3.69238C9.99414 3.15462 10.1445 2.67611 10.4453 2.25684C10.7507 1.83301 11.1859 1.5026 11.751 1.26562C12.3206 1.02865 12.9587 0.910156 13.665 0.910156C14.376 0.910156 15.0094 1.04004 15.5654 1.2998C16.1214 1.55501 16.5521 1.91732 16.8574 2.38672C17.1673 2.85612 17.3223 3.38932 17.3223 3.98633H15.2715C15.2715 3.5306 15.1279 3.17741 14.8408 2.92676C14.5537 2.67155 14.1504 2.54395 13.6309 2.54395C13.1296 2.54395 12.7399 2.65104 12.4619 2.86523C12.1839 3.07487 12.0449 3.35286 12.0449 3.69922C12.0449 4.02279 12.2067 4.29395 12.5303 4.5127C12.8584 4.73145 13.3392 4.93652 13.9727 5.12793C15.1393 5.47884 15.9893 5.91406 16.5225 6.43359C17.0557 6.95312 17.3223 7.60026 17.3223 8.375C17.3223 9.23633 16.9964 9.91309 16.3447 10.4053C15.693 10.8929 14.8158 11.1367 13.7129 11.1367C12.9473 11.1367 12.25 10.9977 11.6211 10.7197C10.9922 10.4372 10.5114 10.0521 10.1787 9.56445C9.85059 9.07682 9.68652 8.51172 9.68652 7.86914H11.7441C11.7441 8.96745 12.4004 9.5166 13.7129 9.5166C14.2005 9.5166 14.5811 9.41862 14.8545 9.22266C15.1279 9.02214 15.2646 8.74414 15.2646 8.38867ZM18.7168 11V1.04688H21.7793C22.6543 1.04688 23.4359 1.24512 24.124 1.6416C24.8167 2.03353 25.3568 2.59408 25.7441 3.32324C26.1315 4.04785 26.3252 4.87272 26.3252 5.79785V6.25586C26.3252 7.18099 26.1338 8.00358 25.751 8.72363C25.3727 9.44368 24.8372 10.002 24.1445 10.3984C23.4518 10.7949 22.6702 10.9954 21.7998 11H18.7168ZM20.7676 2.70801V9.35254H21.7588C22.5609 9.35254 23.1738 9.09049 23.5977 8.56641C24.0215 8.04232 24.238 7.29264 24.2471 6.31738V5.79102C24.2471 4.7793 24.0374 4.01367 23.6182 3.49414C23.1989 2.97005 22.5859 2.70801 21.7793 2.70801H20.7676Z" fill="#84878B"/>
</svg>
